<?xml version="1.0" encoding="utf-8"?>
<svg viewBox="0 0 500 500" xmlns="http://www.w3.org/2000/svg">
  <g transform="matrix(12.708333015441895, 0, 0, 12.708333015441895, 112.10065460205078, 198.43161010742188)">
    <rect fill="none" height="24" width="24"/>
  </g>
  <g transform="matrix(25.281620025634766, 0, 0, 25.281620025634766, -50.5632438659668, -56.26633834838867)">
    <g>
      <path d="M 17.33 3.55 C 16.39 2.95 15.34 2.51 14.21 2.25 C 13.59 2.11 13 2.59 13 3.23 C 13 3.68 13.3 4.1 13.74 4.2 C 14.65 4.4 15.51 4.76 16.27 5.25 C 16.66 5.5 17.16 5.42 17.49 5.09 C 17.94 4.64 17.87 3.89 17.33 3.55 Z M 20.77 11 C 21.41 11 21.9 10.41 21.75 9.79 C 21.49 8.67 21.05 7.62 20.45 6.67 C 20.11 6.13 19.35 6.06 18.9 6.51 C 18.58 6.83 18.5 7.34 18.74 7.73 C 19.23 8.5 19.59 9.35 19.79 10.26 C 19.9 10.7 20.31 11 20.77 11 Z M 18.9 17.49 C 19.35 17.94 20.11 17.87 20.45 17.34 C 21.05 16.4 21.49 15.35 21.75 14.23 C 21.89 13.61 21.4 13.02 20.77 13.02 C 20.32 13.02 19.9 13.32 19.8 13.76 C 19.6 14.67 19.23 15.52 18.75 16.29 C 18.5 16.66 18.58 17.17 18.9 17.49 Z M 13 20.77 C 13 21.41 13.59 21.9 14.21 21.75 C 15.33 21.49 16.38 21.05 17.32 20.45 C 17.86 20.11 17.93 19.35 17.48 18.9 C 17.16 18.58 16.65 18.5 16.27 18.75 C 15.51 19.24 14.66 19.6 13.74 19.8 C 13.3 19.9 13 20.31 13 20.77 Z M 11 20.77 C 11 21.41 10.41 21.9 9.79 21.76 C 5.33 20.75 2 16.77 2 12 C 2 7.23 5.33 3.25 9.79 2.25 C 10.41 2.11 11 2.59 11 3.23 C 11 3.69 10.69 4.1 10.24 4.2 C 6.67 5 4 8.19 4 12 C 4 15.81 6.67 19 10.24 19.8 C 10.69 19.9 11 20.31 11 20.77 Z" style="transform-box: fill-box; transform-origin: 50% 50%; transform: matrix(0.999934, 0.0115019, -0.0115019, 0.999934, 0, 0);"/>
    </g>
  </g>
</svg>