<svg id="svg" version="1.1" xmlns="http://www.w3.org/2000/svg" xmlns:xlink="http://www.w3.org/1999/xlink" width="400" height="400" viewBox="0, 0, 400,400"><g id="svgg"><path id="path0" d="M195.944 42.988 C 191.618 44.074,187.357 47.583,185.236 51.806 C 181.580 59.086,59.322 345.390,58.938 347.571 C 57.514 355.656,63.512 364.240,71.797 365.973 C 74.741 366.589,325.259 366.589,328.203 365.973 C 336.488 364.240,342.486 355.656,341.062 347.571 C 340.645 345.206,217.880 57.849,214.565 51.481 C 211.126 44.872,203.072 41.199,195.944 42.988 " stroke="none" fill="#040404" fill-rule="evenodd"></path><path id="path1" d="M33.984 0.263 C 17.503 2.955,5.642 13.528,1.051 29.619 L 0.195 32.617 0.094 198.438 C -0.018 381.834,-0.213 367.446,2.490 374.644 C 7.216 387.226,18.142 396.468,31.510 399.192 L 35.474 400.000 200.000 400.000 C 363.744 400.000,364.544 399.996,368.413 399.208 C 384.222 395.986,395.982 384.243,399.197 368.468 L 400.006 364.495 399.906 198.751 L 399.805 33.008 398.751 29.190 C 394.893 15.219,384.741 5.172,370.313 1.046 L 367.383 0.208 201.172 0.156 C 109.756 0.127,34.521 0.175,33.984 0.263 M206.796 44.064 C 210.153 45.636,212.876 48.234,214.565 51.481 C 217.880 57.849,340.645 345.206,341.062 347.571 C 342.486 355.656,336.488 364.240,328.203 365.973 C 325.259 366.589,74.741 366.589,71.797 365.973 C 63.512 364.240,57.514 355.656,58.938 347.571 C 59.322 345.390,181.580 59.086,185.236 51.806 C 189.250 43.814,198.875 40.358,206.796 44.064 " stroke="none" fill="#04fb04" fill-rule="evenodd"></path></g></svg>